<?xml version="1.0" standalone="no"?>
<!DOCTYPE svg PUBLIC "-//W3C//DTD SVG 20010904//EN"
 "http://www.w3.org/TR/2001/REC-SVG-20010904/DTD/svg10.dtd">
<svg version="1.0" xmlns="http://www.w3.org/2000/svg"
 width="100.000000pt" height="100.000000pt" viewBox="0 0 100.000000 100.000000"
 preserveAspectRatio="xMidYMid meet">
<metadata>
Created by potrace 1.14, written by Peter Selinger 2001-2017
</metadata>
<g transform="translate(0.000000,100.000000) scale(0.100000,-0.100000)"
fill="#000000" stroke="none">
<path d="M0 500 l0 -500 500 0 500 0 0 500 0 500 -500 0 -500 0 0 -500z m450
330 c0 -53 -2 -60 -20 -60 -11 0 -20 -2 -20 -5 0 -10 85 -175 90 -175 5 0 90
165 90 175 0 3 -9 5 -20 5 -18 0 -20 7 -20 60 l0 60 135 0 136 0 -3 -62 c-3
-59 -5 -63 -28 -66 -21 -2 -39 -28 -112 -162 l-88 -159 0 -105 0 -106 30 0 30
0 0 -60 0 -60 -150 0 -150 0 0 60 0 60 30 0 30 0 0 106 0 105 -87 159 c-74
134 -92 160 -113 162 -23 3 -25 7 -28 66 l-3 62 136 0 135 0 0 -60z"/>
</g>
</svg>
